<?xml version="1.0" encoding="utf-8"?>
<!-- Generator: Adobe Illustrator 17.0.0, SVG Export Plug-In . SVG Version: 6.00 Build 0)  -->
<!DOCTYPE svg PUBLIC "-//W3C//DTD SVG 1.1//EN" "http://www.w3.org/Graphics/SVG/1.1/DTD/svg11.dtd">
<svg version="1.1" id="Layer_1" xmlns="http://www.w3.org/2000/svg" xmlns:xlink="http://www.w3.org/1999/xlink" x="0px" y="0px"
	 width="35px" height="35px" viewBox="0 0 35 35" enable-background="new 0 0 35 35" xml:space="preserve">
<g>
	<path fill="#141414" d="M13.918,33.291c-1.886,0-3.771,0.011-5.657-0.004c-1.127-0.009-2.208-0.239-3.198-0.807
		c-1.533-0.879-2.258-2.285-2.47-3.965C2.299,26.19,2.695,23.973,3.9,21.945c1.366-2.298,3.458-3.523,6.06-3.905
		c0.785-0.115,1.587-0.141,2.382-0.149c2.113-0.021,4.227-0.018,6.34-0.007c2.073,0.011,3.95,0.629,5.622,1.861
		c0.432,0.318,0.601,0.75,0.499,1.264c-0.093,0.471-0.399,0.778-0.863,0.917c-0.378,0.113-0.732,0.041-1.043-0.188
		c-1.41-1.039-2.992-1.441-4.735-1.412c-2.239,0.037-4.479,0.009-6.719-0.016c-3.766-0.043-6.787,3.152-6.5,6.896
		c0.031,0.403,0.047,0.809,0.115,1.206c0.241,1.399,1.099,2.205,2.517,2.373c0.426,0.05,0.857,0.076,1.286,0.077
		c3.683,0.006,7.365,0.002,11.048,0.005c0.536,0,0.973,0.291,1.156,0.767c0.187,0.486,0.11,0.958-0.278,1.283
		c-0.24,0.201-0.602,0.356-0.912,0.361c-1.986,0.032-3.974,0.016-5.96,0.016C13.918,33.292,13.918,33.291,13.918,33.291z"/>
	<path fill="#141414" d="M15.077,15.472c-3.734,0.019-6.87-3.079-6.887-6.804c-0.017-3.821,3.038-6.959,6.788-6.972
		c3.891-0.013,6.973,3.011,7.005,6.873C22.014,12.348,18.907,15.453,15.077,15.472z M19.522,8.571
		c-0.004-2.455-1.983-4.437-4.438-4.446c-2.419-0.009-4.465,2.035-4.454,4.449c0.012,2.478,2.001,4.455,4.475,4.447
		C17.569,13.014,19.527,11.041,19.522,8.571z"/>
	<path fill="#141414" d="M26.805,27.541c0-0.638-0.01-1.283,0.003-1.927c0.013-0.624,0.431-1.117,0.999-1.211
		c0.597-0.099,1.137,0.179,1.344,0.735c0.081,0.218,0.095,0.468,0.101,0.705c0.014,0.578,0.004,1.157,0.004,1.765
		c0.707,0,1.364-0.012,2.02,0.003c0.584,0.013,1.058,0.403,1.19,0.942c0.125,0.509-0.098,1.081-0.582,1.324
		c-0.237,0.119-0.529,0.162-0.799,0.174c-0.591,0.025-1.183,0.008-1.829,0.008c0,0.629,0.016,1.22-0.007,1.809
		c-0.011,0.271-0.047,0.564-0.163,0.803c-0.242,0.498-0.836,0.731-1.353,0.593c-0.538-0.143-0.913-0.616-0.925-1.204
		c-0.012-0.644-0.003-1.288-0.003-2.001c-0.369,0-0.716,0-1.063,0c-0.316,0-0.633,0.011-0.949-0.005
		c-0.729-0.038-1.226-0.551-1.216-1.237c0.011-0.678,0.535-1.192,1.252-1.207c0.632-0.014,1.265-0.011,1.897-0.016
		C26.738,27.594,26.747,27.581,26.805,27.541z"/>
</g>
</svg>
