<?xml version="1.0" encoding="utf-8"?>
<!-- Generator: Adobe Illustrator 17.0.0, SVG Export Plug-In . SVG Version: 6.00 Build 0)  -->
<!DOCTYPE svg PUBLIC "-//W3C//DTD SVG 1.1//EN" "http://www.w3.org/Graphics/SVG/1.1/DTD/svg11.dtd">
<svg version="1.1" id="Layer_1" xmlns="http://www.w3.org/2000/svg" xmlns:xlink="http://www.w3.org/1999/xlink" x="0px" y="0px"
	 width="52.667px" height="52.667px" viewBox="0 0 52.667 52.667" enable-background="new 0 0 52.667 52.667" xml:space="preserve">
<circle opacity="0.3" cx="26.333" cy="26.333" r="25"/>
<g>
	<path fill="#EDEDED" d="M15.102,7.669c5.176,0,10.353,0,15.529,0c0.078,0.102,0.145,0.214,0.235,0.304
		c2.902,2.905,5.804,5.811,8.714,8.708c0.206,0.205,0.292,0.403,0.291,0.695c-0.009,5.929-0.006,11.857-0.006,17.786
		c0,2.43,0.004,4.86-0.002,7.289c-0.003,1.142-0.759,2.113-1.859,2.416c-0.15,0.041-0.298,0.086-0.447,0.13
		c-7.485,0-14.97,0-22.456,0c-0.054-0.027-0.105-0.066-0.161-0.078c-1.405-0.31-2.146-1.221-2.146-2.648
		c-0.001-2.708,0-5.416,0-8.124c0-7.954,0-15.908,0.001-23.862c0-1.2,0.738-2.181,1.859-2.488
		C14.805,7.757,14.953,7.712,15.102,7.669z M28.407,29.347c1.737,0,3.474-0.006,5.21,0.006c0.294,0.002,0.413-0.075,0.398-0.386
		c-0.023-0.485-0.019-0.972-0.001-1.457c0.01-0.278-0.074-0.409-0.367-0.387c-0.217,0.016-0.437,0.003-0.656,0.003
		c-3.218,0-6.437,0.004-9.655-0.006c-0.343-0.001-0.481,0.093-0.459,0.452c0.027,0.448,0.024,0.899,0.001,1.347
		c-0.017,0.329,0.085,0.44,0.428,0.437C25.006,29.338,26.707,29.347,28.407,29.347z M28.481,34.446c1.713,0,3.426-0.006,5.139,0.005
		c0.299,0.002,0.408-0.09,0.395-0.394c-0.021-0.497-0.015-0.996-0.002-1.494c0.006-0.244-0.068-0.347-0.329-0.347
		c-3.487,0.006-6.973,0.005-10.46,0c-0.248,0-0.351,0.081-0.344,0.337c0.013,0.473,0.024,0.949-0.004,1.421
		c-0.021,0.362,0.087,0.484,0.465,0.48C25.055,34.435,26.768,34.446,28.481,34.446z M28.44,24.246c1.735,0,3.471-0.006,5.206,0.006
		c0.291,0.002,0.382-0.088,0.369-0.373c-0.02-0.448-0.005-0.898-0.005-1.347c0-0.49-0.001-0.493-0.507-0.493
		c-2.998-0.001-5.995-0.001-8.993,0c-0.437,0-0.874,0.005-1.311,0.001c-0.228-0.002-0.325,0.089-0.319,0.326
		c0.012,0.497,0.018,0.996-0.002,1.492c-0.012,0.301,0.088,0.395,0.391,0.393C24.993,24.239,26.716,24.246,28.44,24.246z
		 M19.735,34.442c0.586,0.014,1.128-0.517,1.13-1.108c0.002-0.574-0.511-1.098-1.089-1.111c-0.577-0.014-1.099,0.485-1.123,1.07
		C18.63,33.887,19.139,34.428,19.735,34.442z M19.75,29.345c0.581,0.004,1.096-0.496,1.114-1.08c0.018-0.582-0.52-1.132-1.105-1.13
		c-0.585,0.002-1.096,0.503-1.107,1.085C18.641,28.823,19.147,29.341,19.75,29.345z M19.762,24.245
		c0.594-0.004,1.091-0.491,1.102-1.082c0.012-0.601-0.502-1.107-1.117-1.098c-0.607,0.008-1.089,0.482-1.095,1.077
		C18.646,23.75,19.148,24.248,19.762,24.245z"/>
	<polyline fill="#BCBCBC" points="30.627,7.692 30.748,16.991 39.695,16.832 	"/>
</g>
</svg>
