<?xml version="1.0" encoding="utf-8"?>
<!-- Generator: Adobe Illustrator 17.0.0, SVG Export Plug-In . SVG Version: 6.00 Build 0)  -->
<!DOCTYPE svg PUBLIC "-//W3C//DTD SVG 1.1//EN" "http://www.w3.org/Graphics/SVG/1.1/DTD/svg11.dtd">
<svg version="1.1" id="Layer_1" xmlns="http://www.w3.org/2000/svg" xmlns:xlink="http://www.w3.org/1999/xlink" x="0px" y="0px"
	 width="35px" height="35px" viewBox="0 0 35 35" enable-background="new 0 0 35 35" xml:space="preserve">
<g>
	<path fill="#28388F" d="M6.002,20.445c0-3.76,0-7.521,0-11.281c0-0.12-0.008-0.241,0.009-0.359c0.043-0.288,0.298-0.51,0.574-0.491
		C6.9,8.335,7.094,8.512,7.143,8.824c0.02,0.129,0.008,0.263,0.008,0.395c0,7.449,0,14.898,0,22.346c0,0.734,0.147,0.881,0.88,0.881
		c4.371,0,8.742,0,13.113,0c0.096,0,0.192-0.002,0.287,0c0.415,0.01,0.674,0.241,0.664,0.591c-0.01,0.335-0.261,0.556-0.661,0.557
		c-1.76,0.004-3.521,0.002-5.281,0.002c-2.718,0-5.437,0-8.155,0c-1.338,0-1.996-0.664-1.996-2.015
		C6.002,27.87,6.002,24.157,6.002,20.445z"/>
	<path fill="#28388F" d="M17.511,1.403c3.185,0,6.369,0,9.554,0c1.245,0,1.932,0.687,1.932,1.933c0.001,3.101,0,6.201,0,9.302
		c0,0.108,0.011,0.218-0.009,0.323c-0.057,0.309-0.251,0.499-0.565,0.499c-0.314,0.001-0.51-0.186-0.567-0.497
		c-0.021-0.116-0.009-0.239-0.009-0.358c0-3.077,0-6.154,0-9.23c0-0.656-0.168-0.822-0.831-0.822c-6.345,0-12.69,0-19.035,0
		c-0.663,0-0.829,0.165-0.83,0.822C7.151,4.201,7.153,5.027,7.151,5.853C7.15,6.308,6.939,6.571,6.581,6.574
		C6.224,6.577,6.004,6.313,6.003,5.863C6,4.977,5.998,4.091,6.003,3.205c0.006-1.072,0.734-1.8,1.811-1.801
		C11.046,1.401,14.279,1.403,17.511,1.403z"/>
	<path fill="#28388F" d="M28.997,23.912c0,2.587,0.001,5.173,0,7.76c0,1.223-0.694,1.922-1.907,1.924
		c-0.85,0.001-1.7,0.002-2.551-0.001c-0.451-0.001-0.715-0.219-0.713-0.577c0.002-0.358,0.265-0.57,0.719-0.571
		c0.85-0.002,1.7,0.001,2.551-0.001c0.56-0.001,0.751-0.193,0.751-0.758c0.001-5.113,0-10.227,0-15.34c0-0.096,0-0.192,0-0.287
		c0-0.577,0.194-0.859,0.584-0.852c0.378,0.007,0.565,0.284,0.565,0.836C28.997,18.667,28.997,21.29,28.997,23.912z"/>
	<path fill="#28388F" d="M13.916,15.221c0,0.395,0.007,0.79-0.002,1.185c-0.015,0.656-0.477,1.142-1.128,1.155
		c-0.814,0.017-1.628,0.014-2.442,0.001c-0.621-0.01-1.111-0.453-1.134-1.072c-0.032-0.861-0.032-1.724,0.001-2.585
		c0.024-0.619,0.518-1.058,1.139-1.067c0.802-0.012,1.604-0.012,2.406,0c0.673,0.01,1.143,0.488,1.158,1.162
		C13.923,14.407,13.916,14.814,13.916,15.221z M12.735,16.407c0-0.823,0-1.615,0-2.403c-0.805,0-1.578,0-2.359,0
		c0,0.812,0,1.603,0,2.403C11.174,16.407,11.939,16.407,12.735,16.407z"/>
	<path fill="#28388F" d="M13.915,7.802c0,0.395,0.007,0.79-0.001,1.185c-0.014,0.661-0.458,1.144-1.119,1.164
		c-0.825,0.025-1.653,0.025-2.478,0c-0.625-0.018-1.091-0.475-1.112-1.099C9.177,8.216,9.177,7.377,9.204,6.54
		c0.021-0.66,0.511-1.104,1.172-1.11c0.79-0.008,1.58-0.009,2.371,0c0.677,0.008,1.151,0.479,1.166,1.152
		C13.923,6.988,13.915,7.395,13.915,7.802z M10.378,6.589c0,0.827,0,1.616,0,2.403c0.807,0,1.579,0,2.363,0c0-0.811,0-1.601,0-2.403
		C11.942,6.589,11.169,6.589,10.378,6.589z"/>
	<path fill="#28388F" d="M11.586,24.973c-0.407,0-0.814,0.007-1.221-0.002c-0.642-0.013-1.134-0.448-1.157-1.087
		c-0.031-0.849-0.03-1.7,0-2.549c0.022-0.621,0.498-1.072,1.122-1.088c0.814-0.021,1.628-0.02,2.442-0.001
		c0.677,0.016,1.135,0.5,1.142,1.179c0.009,0.79,0.009,1.58,0,2.371c-0.008,0.697-0.481,1.164-1.179,1.177
		C12.352,24.979,11.969,24.973,11.586,24.973z M12.737,23.811c0-0.819,0-1.609,0-2.405c-0.802,0-1.573,0-2.37,0
		c0,0.808,0,1.6,0,2.405C11.162,23.811,11.936,23.811,12.737,23.811z"/>
	<path fill="#28388F" d="M21.191,7.017c-1.28,0-2.56,0.001-3.841,0c-0.473-0.001-0.716-0.19-0.724-0.555
		c-0.008-0.379,0.249-0.593,0.731-0.594c2.572-0.002,5.145-0.002,7.717,0c0.456,0,0.707,0.216,0.706,0.583
		c-0.001,0.347-0.237,0.562-0.642,0.563C23.823,7.019,22.507,7.017,21.191,7.017z"/>
	<path fill="#28388F" d="M21.196,14.428c-1.304,0-2.608,0.003-3.912-0.002c-0.451-0.002-0.713-0.27-0.65-0.656
		c0.055-0.34,0.292-0.481,0.612-0.488c0.478-0.01,0.957-0.003,1.436-0.003c2.094,0,4.187-0.001,6.281,0.002
		c0.142,0,0.291,0.003,0.425,0.043c0.293,0.087,0.42,0.307,0.388,0.605c-0.031,0.284-0.203,0.46-0.488,0.487
		c-0.237,0.022-0.478,0.012-0.717,0.012C23.445,14.428,22.321,14.428,21.196,14.428z"/>
	<path fill="#28388F" d="M21.239,20.693c1.244,0,2.488-0.001,3.732,0.001c0.131,0,0.266,0,0.391,0.031
		c0.279,0.07,0.421,0.266,0.417,0.551c-0.004,0.285-0.152,0.477-0.432,0.539c-0.138,0.031-0.285,0.027-0.428,0.027
		c-2.476,0.001-4.952,0.001-7.428,0.001c-0.6,0-0.858-0.17-0.864-0.564c-0.006-0.409,0.258-0.585,0.88-0.585
		C18.75,20.693,19.995,20.693,21.239,20.693z"/>
	<path fill="#28388F" d="M19.89,23.384c0.849,0,1.697-0.003,2.546,0.001c0.423,0.002,0.674,0.223,0.668,0.576
		c-0.005,0.335-0.253,0.568-0.65,0.569c-1.733,0.006-3.466,0.007-5.2-0.001c-0.397-0.002-0.632-0.241-0.628-0.586
		c0.004-0.347,0.238-0.556,0.646-0.558C18.145,23.381,19.018,23.384,19.89,23.384z"/>
	<path fill="#28388F" d="M19.874,15.973c0.837,0,1.673-0.002,2.51,0.001c0.461,0.002,0.717,0.205,0.721,0.561
		c0.004,0.357-0.26,0.585-0.707,0.586c-1.697,0.004-3.394,0.001-5.091,0.001c-0.315,0-0.573-0.103-0.662-0.431
		c-0.068-0.252,0.001-0.49,0.24-0.619c0.128-0.07,0.294-0.093,0.444-0.095C18.177,15.969,19.026,15.973,19.874,15.973z"/>
	<path fill="#28388F" d="M19.861,8.559c0.86,0,1.721-0.006,2.581,0.003c0.433,0.004,0.693,0.262,0.661,0.622
		c-0.027,0.295-0.247,0.516-0.585,0.517c-1.768,0.009-3.537,0.01-5.305,0c-0.374-0.002-0.594-0.248-0.586-0.584
		c0.008-0.332,0.229-0.548,0.617-0.553c0.872-0.011,1.744-0.003,2.617-0.003C19.861,8.56,19.861,8.559,19.861,8.559z"/>
</g>
</svg>
