<?xml version="1.0" encoding="utf-8"?>
<!-- Generator: Adobe Illustrator 17.0.0, SVG Export Plug-In . SVG Version: 6.00 Build 0)  -->
<!DOCTYPE svg PUBLIC "-//W3C//DTD SVG 1.1//EN" "http://www.w3.org/Graphics/SVG/1.1/DTD/svg11.dtd">
<svg version="1.1" id="Layer_1" xmlns="http://www.w3.org/2000/svg" xmlns:xlink="http://www.w3.org/1999/xlink" x="0px" y="0px"
	 width="52.667px" height="52.667px" viewBox="0 0 52.667 52.667" enable-background="new 0 0 52.667 52.667" xml:space="preserve">
<circle opacity="0.3" cx="26.333" cy="26.333" r="25"/>
<g>
	<path fill="#EDEDED" d="M39.955,28.64c0,4.813,0.001,9.627,0,14.44c0,1.052-0.231,1.28-1.284,1.28c-8.241,0-16.482,0-24.722,0
		c-0.983,0-1.236-0.245-1.236-1.214c-0.001-9.683-0.001-19.366,0-29.049c0-0.99,0.272-1.258,1.276-1.26
		c1.461-0.003,2.922,0.012,4.383-0.008c0.435-0.006,0.602,0.124,0.579,0.577c-0.074,1.476,0.121,1.337,1.367,1.336
		c4.158-0.001,8.316,0,12.474-0.001c0.848,0,0.932-0.088,0.935-0.932c0-0.056,0-0.112,0-0.169c0.001-0.802,0.001-0.803,0.786-0.803
		c1.423-0.001,2.847-0.005,4.27,0.002c0.878,0.004,1.173,0.306,1.173,1.194C39.956,18.9,39.955,23.77,39.955,28.64z M22.79,39.186
		c2.378,0,4.755,0,7.133-0.001c0.187,0,0.403,0.049,0.554-0.028c0.206-0.104,0.52-0.327,0.503-0.463
		c-0.027-0.214-0.27-0.425-0.465-0.582c-0.094-0.076-0.289-0.033-0.438-0.033c-4.849-0.001-9.698-0.002-14.547,0.002
		c-0.184,0-0.414-0.021-0.542,0.075c-0.168,0.126-0.347,0.359-0.348,0.547c-0.001,0.15,0.233,0.355,0.408,0.436
		c0.173,0.08,0.403,0.045,0.609,0.045C18.034,39.186,20.412,39.186,22.79,39.186z M22.733,22.268c2.396,0,4.793,0,7.189,0
		c0.168,0,0.372,0.055,0.497-0.02c0.195-0.117,0.483-0.343,0.465-0.488c-0.026-0.205-0.283-0.394-0.471-0.555
		c-0.065-0.056-0.217-0.014-0.329-0.014c-4.849,0-9.698,0-14.547,0c-0.15,0-0.343-0.048-0.439,0.026
		c-0.172,0.132-0.392,0.34-0.392,0.516c0.001,0.174,0.222,0.387,0.399,0.506c0.118,0.079,0.327,0.028,0.495,0.028
		C17.978,22.268,20.356,22.268,22.733,22.268z M22.788,33.549c2.36,0,4.72,0.001,7.08-0.001c0.206,0,0.435,0.039,0.61-0.038
		c0.174-0.076,0.406-0.272,0.411-0.422c0.006-0.191-0.148-0.446-0.311-0.566c-0.141-0.104-0.393-0.075-0.596-0.075
		c-4.776-0.003-9.552-0.003-14.328,0c-0.203,0-0.451-0.032-0.599,0.067c-0.172,0.116-0.362,0.369-0.348,0.547
		c0.013,0.166,0.259,0.365,0.447,0.452c0.172,0.08,0.404,0.036,0.61,0.036C18.106,33.549,20.447,33.549,22.788,33.549z
		 M22.788,27.893c2.451,0,4.902-0.001,7.352,0.001c0.399,0,0.794-0.015,0.773-0.556c-0.019-0.487-0.383-0.521-0.765-0.521
		c-4.883,0.002-9.766,0.003-14.648-0.001c-0.406,0-0.801,0.047-0.811,0.545c-0.01,0.527,0.409,0.533,0.803,0.533
		C17.924,27.892,20.356,27.893,22.788,27.893z M33.854,37.968c-0.372-0.428-0.68-0.803-1.011-1.155
		c-0.238-0.253-0.517-0.293-0.784-0.026c-0.263,0.264-0.232,0.534,0.016,0.786c0.457,0.467,0.916,0.933,1.384,1.39
		c0.265,0.259,0.585,0.296,0.852,0.037c0.858-0.832,1.715-1.668,2.523-2.548c0.133-0.145,0.016-0.521,0.014-0.791
		c-0.253,0.012-0.516-0.015-0.754,0.05c-0.141,0.039-0.245,0.22-0.363,0.34C35.143,36.65,34.557,37.249,33.854,37.968z
		 M33.882,32.278c-0.378-0.424-0.66-0.748-0.95-1.062c-0.262-0.284-0.575-0.387-0.881-0.098c-0.313,0.296-0.204,0.604,0.069,0.878
		c0.423,0.423,0.849,0.844,1.268,1.272c0.365,0.374,0.709,0.34,1.063-0.019c0.749-0.759,1.507-1.509,2.256-2.269
		c0.28-0.284,0.498-0.625,0.152-0.975c-0.364-0.368-0.675-0.1-0.951,0.185C35.271,30.847,34.634,31.503,33.882,32.278z
		 M33.864,26.696c-0.356-0.406-0.633-0.735-0.925-1.051c-0.252-0.273-0.545-0.436-0.871-0.12c-0.319,0.309-0.192,0.606,0.078,0.875
		c0.412,0.41,0.829,0.814,1.237,1.226c0.364,0.368,0.707,0.347,1.065-0.016c0.75-0.76,1.506-1.514,2.265-2.265
		c0.284-0.281,0.447-0.6,0.137-0.927c-0.34-0.357-0.64-0.111-0.906,0.159C35.29,25.245,34.634,25.912,33.864,26.696z M33.828,21.056
		c-0.321-0.386-0.577-0.707-0.846-1.016c-0.256-0.294-0.565-0.483-0.913-0.164c-0.361,0.33-0.164,0.631,0.115,0.906
		c0.4,0.394,0.788,0.798,1.191,1.188c0.432,0.419,0.645,0.416,1.085-0.018c0.745-0.736,1.477-1.484,2.224-2.217
		c0.296-0.29,0.505-0.615,0.172-0.963c-0.361-0.377-0.671-0.094-0.948,0.187C35.266,19.608,34.621,20.256,33.828,21.056z"/>
	<path fill="#EDEDED" d="M26.276,13.663c-1.871,0-3.743-0.014-5.614,0.01c-0.475,0.006-0.683-0.104-0.65-0.619
		c0.041-0.634,0.029-1.273,0.003-1.908c-0.016-0.401,0.15-0.524,0.525-0.518c0.786,0.014,1.572,0.01,2.358-0.001
		c0.696-0.009,0.836-0.14,0.822-0.822c-0.035-1.673,0.118-1.494,1.52-1.492c0.973,0.001,1.946-0.005,2.919,0.003
		c0.593,0.005,0.767,0.185,0.783,0.765c0.001,0.019,0,0.037,0,0.056c0.001,1.438-0.21,1.515,1.501,1.495
		c0.58-0.007,1.16,0.008,1.74,0c0.324-0.005,0.474,0.113,0.465,0.46c-0.018,0.692-0.022,1.385,0.001,2.077
		c0.014,0.407-0.162,0.503-0.535,0.501C30.169,13.656,28.222,13.663,26.276,13.663z"/>
</g>
</svg>
