<?xml version="1.0" encoding="utf-8"?>
<!-- Generator: Adobe Illustrator 17.0.0, SVG Export Plug-In . SVG Version: 6.00 Build 0)  -->
<!DOCTYPE svg PUBLIC "-//W3C//DTD SVG 1.1//EN" "http://www.w3.org/Graphics/SVG/1.1/DTD/svg11.dtd">
<svg version="1.1" id="Layer_1" xmlns="http://www.w3.org/2000/svg" xmlns:xlink="http://www.w3.org/1999/xlink" x="0px" y="0px"
	 width="35px" height="35px" viewBox="0 0 35 35" enable-background="new 0 0 35 35" xml:space="preserve">
<g>
	<path fill="#28388F" d="M7.554,29.775c-1.153,0-2.306,0.003-3.458-0.001c-1.074-0.004-1.569-0.711-1.208-1.715
		c0.719-1.998,2.627-3.308,4.779-3.281c2.111,0.026,3.988,1.398,4.655,3.403c0.288,0.867-0.222,1.582-1.157,1.591
		C9.961,29.784,8.758,29.775,7.554,29.775z"/>
	<path fill="#28388F" d="M7.574,15.952c-1.164,0-2.328,0.002-3.491,0c-1.045-0.002-1.548-0.711-1.203-1.688
		c0.714-2.023,2.642-3.347,4.825-3.313c2.087,0.032,3.98,1.437,4.626,3.434c0.268,0.828-0.237,1.554-1.113,1.563
		C10.003,15.962,8.788,15.952,7.574,15.952z"/>
	<path fill="#28388F" d="M7.584,24.095c-1.389,0.001-2.54-1.153-2.532-2.539c0.008-1.393,1.163-2.535,2.55-2.521
		c1.38,0.014,2.507,1.144,2.512,2.519C10.119,22.944,8.974,24.094,7.584,24.095z"/>
	<path fill="#28388F" d="M7.586,5.222c1.404,0.002,2.539,1.144,2.527,2.543c-0.011,1.382-1.148,2.505-2.533,2.502
		c-1.387-0.003-2.515-1.122-2.527-2.508C5.04,6.363,6.182,5.22,7.586,5.222z"/>
	<path fill="#28388F" d="M24.406,23.505c-2.292,0-4.584,0-6.875,0c-0.127,0-0.255,0.008-0.379-0.011
		c-0.282-0.044-0.456-0.216-0.496-0.497c-0.042-0.297,0.073-0.534,0.358-0.638c0.161-0.059,0.347-0.066,0.521-0.067
		c4.596-0.003,9.193-0.003,13.789-0.001c0.163,0,0.333,0.004,0.487,0.05c0.289,0.085,0.44,0.306,0.416,0.603
		c-0.025,0.311-0.206,0.512-0.528,0.552c-0.125,0.016-0.253,0.008-0.379,0.008C29.015,23.505,26.71,23.505,24.406,23.505z"/>
	<path fill="#28388F" d="M24.446,8.474c2.279,0,4.558,0,6.837,0.001c0.139,0,0.28-0.005,0.417,0.016
		c0.335,0.05,0.528,0.261,0.527,0.592c-0.001,0.33-0.189,0.543-0.527,0.591c-0.125,0.018-0.252,0.016-0.379,0.016
		c-4.596,0.001-9.192,0.001-13.787,0c-0.126,0-0.255,0.002-0.378-0.019c-0.316-0.054-0.495-0.248-0.504-0.569
		c-0.009-0.34,0.173-0.547,0.504-0.608c0.135-0.025,0.277-0.018,0.416-0.018C19.863,8.474,22.155,8.474,24.446,8.474z"/>
	<path fill="#28388F" d="M21.706,12.152c1.392,0,2.784,0,4.175,0c0.126,0,0.255-0.006,0.379,0.015
		c0.284,0.049,0.495,0.246,0.472,0.509c-0.018,0.215-0.186,0.438-0.338,0.613c-0.07,0.08-0.26,0.075-0.396,0.076
		c-2.872,0.004-5.744,0.004-8.616,0.001c-0.477,0-0.743-0.238-0.733-0.628c0.009-0.376,0.26-0.584,0.731-0.585
		C18.821,12.15,20.263,12.152,21.706,12.152z"/>
	<path fill="#28388F" d="M21.692,25.975c1.429,0,2.859-0.007,4.288,0.008c0.2,0.002,0.442,0.06,0.588,0.182
		c0.34,0.284,0.203,0.838-0.223,0.973c-0.152,0.048-0.324,0.051-0.487,0.051c-2.77,0.003-5.541,0.002-8.311,0.002
		c-0.076,0-0.152,0.003-0.228-0.002c-0.429-0.025-0.674-0.25-0.672-0.615c0.002-0.365,0.249-0.595,0.68-0.596
		C18.782,25.971,20.237,25.975,21.692,25.975z"/>
</g>
</svg>
