<?xml version="1.0" encoding="utf-8"?>
<!-- Generator: Adobe Illustrator 17.0.0, SVG Export Plug-In . SVG Version: 6.00 Build 0)  -->
<!DOCTYPE svg PUBLIC "-//W3C//DTD SVG 1.1//EN" "http://www.w3.org/Graphics/SVG/1.1/DTD/svg11.dtd">
<svg version="1.1" id="Layer_1" xmlns="http://www.w3.org/2000/svg" xmlns:xlink="http://www.w3.org/1999/xlink" x="0px" y="0px"
	 width="35px" height="35px" viewBox="0 0 35 35" enable-background="new 0 0 35 35" xml:space="preserve">
<g>
	<path fill="#28388F" d="M16.463,1.439c4.761,0.024,8.626,3.898,8.582,8.635c-0.046,4.941-4.126,8.631-8.771,8.556
		c-4.621-0.074-8.46-3.976-8.428-8.658C7.877,5.264,11.764,1.415,16.463,1.439z M22.786,10.051c0.025-3.453-2.802-6.326-6.251-6.352
		c-3.553-0.027-6.409,2.779-6.428,6.315c-0.019,3.466,2.813,6.333,6.286,6.368C19.885,16.416,22.76,13.569,22.786,10.051z"/>
	<path fill="#28388F" d="M32.499,24.909c-0.004,0.716-0.351,1.415-0.911,1.985c-1.863,1.897-3.745,3.775-5.633,5.648
		c-0.424,0.42-0.97,0.633-1.564,0.713c-0.681,0.092-1.359,0.207-2.041,0.284c-1.293,0.145-2.36-0.834-2.274-2.129
		c0.054-0.823,0.185-1.643,0.328-2.457c0.099-0.561,0.397-1.041,0.802-1.447c1.74-1.741,3.477-3.484,5.222-5.219
		c0.615-0.611,1.308-1.101,2.211-1.152c0.309-0.017,0.632,0.011,0.932,0.086C31.111,21.609,32.538,23.364,32.499,24.909z
		 M22.339,31.281c0.453-0.067,0.852-0.156,1.255-0.177c0.523-0.027,0.91-0.241,1.271-0.619c0.876-0.92,1.79-1.804,2.688-2.703
		c0.088-0.088,0.172-0.18,0.258-0.27c-0.062,0.045-0.124,0.09-0.186,0.136c-0.555-0.555-1.11-1.111-1.665-1.666
		c0.102-0.127,0.064-0.103,0.032-0.071c-1.056,1.055-2.115,2.106-3.161,3.17c-0.113,0.115-0.196,0.291-0.225,0.451
		C22.503,30.091,22.431,30.657,22.339,31.281z M30.247,24.674c-0.051-0.368-0.35-0.635-0.636-0.905
		c-0.617-0.583-1.391-0.447-1.782,0.315c-0.032,0.062-0.002,0.178,0.037,0.249c0.332,0.606,0.804,1.077,1.405,1.416
		c0.067,0.038,0.155,0.081,0.222,0.067C29.715,25.769,30.251,24.982,30.247,24.674z"/>
	<path fill="#28388F" d="M2.501,32.056c0.14-2.792,1.3-5.118,3.267-7.056c2.106-2.075,4.666-3.288,7.547-3.845
		c2.608-0.504,5.194-0.372,7.749,0.348c0.584,0.165,0.913,0.552,0.924,1.081c0.01,0.513-0.27,0.939-0.766,1.084
		c-0.202,0.059-0.448,0.077-0.648,0.02c-1.837-0.523-3.704-0.734-5.603-0.515c-3.536,0.408-6.578,1.765-8.74,4.714
		c-0.961,1.311-1.461,2.798-1.485,4.435c-0.011,0.731-0.489,1.245-1.143,1.238c-0.677-0.007-1.124-0.531-1.103-1.295
		C2.503,32.196,2.501,32.126,2.501,32.056z"/>
</g>
</svg>
