<?xml version="1.0" encoding="utf-8"?>
<!-- Generator: Adobe Illustrator 17.0.0, SVG Export Plug-In . SVG Version: 6.00 Build 0)  -->
<!DOCTYPE svg PUBLIC "-//W3C//DTD SVG 1.1//EN" "http://www.w3.org/Graphics/SVG/1.1/DTD/svg11.dtd">
<svg version="1.1" id="Layer_1" xmlns="http://www.w3.org/2000/svg" xmlns:xlink="http://www.w3.org/1999/xlink" x="0px" y="0px"
	 width="35px" height="35px" viewBox="0 0 35 35" enable-background="new 0 0 35 35" xml:space="preserve">
<g>
	<path d="M2.609,31.29c0.136-0.681,0.278-1.361,0.405-2.043c0.317-1.693,0.615-3.39,0.951-5.079
		c0.051-0.254,0.228-0.517,0.417-0.706c3.719-3.735,7.448-7.461,11.175-11.188c2.713-2.713,5.434-5.419,8.134-8.145
		c0.721-0.728,1.457-1.39,2.529-1.51c0.194,0,0.388,0,0.582,0c0.579,0.093,1.132,0.252,1.6,0.625
		c0.159,0.127,0.313,0.26,0.457,0.403c0.838,0.833,1.675,1.668,2.508,2.507c1.365,1.374,1.367,3.282-0.005,4.655
		c-6.609,6.613-13.221,13.223-19.829,19.837c-0.253,0.253-0.545,0.377-0.89,0.44c-2.266,0.412-4.529,0.837-6.794,1.252
		c-0.685,0.126-0.936-0.012-1.24-0.642C2.609,31.561,2.609,31.425,2.609,31.29z M23.246,7.153
		c-5.698,5.698-11.408,11.408-17.098,17.098c1.529,1.529,3.082,3.082,4.616,4.616c5.696-5.692,11.409-11.401,17.104-17.093
		C26.331,10.238,24.777,8.684,23.246,7.153z M29.197,10.51c0.307-0.308,0.629-0.628,0.947-0.952
		c0.662-0.675,0.665-1.483,0.006-2.156c-0.4-0.408-0.807-0.809-1.211-1.212c-0.452-0.452-0.899-0.908-1.357-1.354
		c-0.529-0.516-1.223-0.654-1.768-0.258c-0.492,0.357-0.906,0.821-1.332,1.218C26.076,7.389,27.628,8.942,29.197,10.51z
		 M4.57,30.434c1.485-0.276,2.919-0.542,4.332-0.804c-1.184-1.184-2.35-2.35-3.529-3.529C5.111,27.516,4.846,28.946,4.57,30.434z"/>
	<path d="M15.324,32.381c-0.133-0.055-0.271-0.1-0.399-0.167c-0.537-0.281-0.813-0.892-0.685-1.498
		c0.12-0.569,0.645-1.019,1.236-1.057c0.109-0.007,0.218-0.004,0.327-0.004c3.902,0,7.805,0.012,11.707-0.01
		c0.849-0.005,1.437,0.273,1.714,1.1c0,0.182,0,0.363,0,0.545c-0.176,0.551-0.536,0.917-1.09,1.09
		C23.864,32.381,19.594,32.381,15.324,32.381z"/>
</g>
</svg>
