<?xml version="1.0" encoding="utf-8"?>
<!-- Generator: Adobe Illustrator 17.0.0, SVG Export Plug-In . SVG Version: 6.00 Build 0)  -->
<!DOCTYPE svg PUBLIC "-//W3C//DTD SVG 1.1//EN" "http://www.w3.org/Graphics/SVG/1.1/DTD/svg11.dtd">
<svg version="1.1" id="Layer_1" xmlns="http://www.w3.org/2000/svg" xmlns:xlink="http://www.w3.org/1999/xlink" x="0px" y="0px"
	 width="35px" height="35px" viewBox="0 0 35 35" enable-background="new 0 0 35 35" xml:space="preserve">
<g>
	<path fill="#28388F" d="M29.289,21.684c0,0.253,0.002,0.442,0,0.631c-0.005,0.474-0.144,0.632-0.614,0.704
		c-0.776,0.118-1.215,0.793-0.948,1.472c0.162,0.414,0.484,0.63,0.918,0.699c0.526,0.084,0.643,0.221,0.645,0.748
		c0.002,0.607,0.005,1.214-0.001,1.821c-0.004,0.445-0.213,0.649-0.657,0.664c-0.071,0.002-0.143,0.001-0.214,0.001
		c-8.677,0-17.353,0-26.03,0c-0.734,0-0.885-0.148-0.886-0.868c0-0.559-0.003-1.119,0.001-1.678c0.003-0.445,0.159-0.617,0.6-0.681
		c0.654-0.095,1.052-0.512,1.048-1.098c-0.004-0.583-0.405-0.991-1.065-1.083c-0.414-0.057-0.582-0.238-0.583-0.66
		c-0.005-0.988-0.004-1.976,0-2.964c0.002-0.436,0.178-0.622,0.611-0.676c0.615-0.075,1.027-0.506,1.03-1.077
		c0.003-0.574-0.39-0.992-1.018-1.083c-0.456-0.066-0.621-0.248-0.623-0.707c-0.004-0.607-0.003-1.214,0-1.821
		c0.003-0.509,0.199-0.706,0.72-0.708c1.024-0.005,2.047-0.002,3.071-0.002c0.127,0,0.254,0,0.417,0c0-0.233-0.001-0.421,0-0.608
		c0.004-0.503,0.131-0.65,0.626-0.728c0.771-0.121,1.208-0.806,0.934-1.482C7.105,10.089,6.78,9.875,6.346,9.81
		C5.842,9.734,5.713,9.586,5.711,9.09c-0.003-0.607-0.004-1.214,0-1.821c0.003-0.473,0.204-0.685,0.666-0.688
		c0.905-0.006,1.809-0.006,2.714,0C9.501,6.583,9.76,6.824,9.749,7.17c-0.01,0.334-0.257,0.548-0.656,0.55
		C8.359,7.725,7.624,7.722,6.854,7.722c0,0.308-0.016,0.58,0.009,0.849c0.008,0.085,0.11,0.195,0.196,0.233
		c0.905,0.402,1.418,1.094,1.423,2.079c0.004,1-0.51,1.704-1.432,2.107c-0.079,0.034-0.129,0.135-0.192,0.205
		c0.083,0.041,0.166,0.115,0.25,0.117c0.464,0.012,0.928,0.006,1.392,0.006c5.07,0,10.14,0,15.211,0.001
		c0.154,0,0.312-0.006,0.462,0.022c0.297,0.055,0.461,0.256,0.46,0.551c-0.002,0.294-0.163,0.496-0.463,0.546
		c-0.163,0.027-0.332,0.022-0.498,0.022c-6.844,0.001-13.687,0.001-20.531,0.001c-0.152,0-0.305,0-0.495,0
		c0,0.306-0.012,0.577,0.008,0.846c0.006,0.079,0.087,0.188,0.161,0.22c0.954,0.406,1.483,1.122,1.461,2.157
		c-0.022,1.019-0.573,1.708-1.525,2.073c-0.032,0.012-0.06,0.037-0.104,0.066c0,0.635-0.008,1.277,0.009,1.919
		c0.002,0.094,0.105,0.229,0.195,0.269c0.917,0.41,1.433,1.107,1.427,2.111c-0.005,0.988-0.52,1.675-1.423,2.079
		c-0.091,0.041-0.188,0.169-0.199,0.266c-0.028,0.256-0.009,0.517-0.009,0.795c8.503,0,16.972,0,25.5,0
		c0-0.287,0.013-0.579-0.009-0.869c-0.006-0.072-0.116-0.16-0.198-0.197c-0.904-0.402-1.417-1.094-1.42-2.08
		c-0.003-1.001,0.514-1.702,1.434-2.107c0.084-0.037,0.184-0.157,0.186-0.241c0.015-0.653,0.008-1.306,0.008-1.964
		c-1.031-0.389-1.642-1.101-1.628-2.205c0.014-1.07,0.616-1.762,1.616-2.132c0-0.32,0-0.639,0-1.006c-0.448,0-0.885,0.001-1.322,0
		c-0.155,0-0.31,0.005-0.464-0.01c-0.324-0.032-0.544-0.257-0.551-0.549c-0.008-0.303,0.224-0.561,0.562-0.575
		c0.487-0.019,0.976-0.008,1.464-0.009c0.286,0,0.572-0.009,0.857,0.004c0.406,0.018,0.603,0.225,0.608,0.635
		c0.007,0.619,0.004,1.238,0.002,1.857c-0.002,0.508-0.148,0.672-0.658,0.745c-0.755,0.108-1.189,0.826-0.893,1.496
		c0.172,0.389,0.484,0.605,0.908,0.658c0.489,0.061,0.639,0.228,0.643,0.715c0.003,0.355,0.001,0.71,0.001,1.089
		c1.024,0,2.018,0,3.04,0c0-0.329,0-0.655,0-0.994c-0.794-0.282-1.353-0.806-1.551-1.657c-0.246-1.058,0.285-2.121,1.293-2.541
		c0.228-0.095,0.299-0.201,0.291-0.439c-0.018-0.523-0.011-1.047-0.003-1.571c0.002-0.171-0.032-0.267-0.216-0.344
		c-0.911-0.383-1.418-1.082-1.419-2.071c-0.001-0.989,0.499-1.691,1.411-2.077c0.176-0.075,0.234-0.158,0.224-0.338
		c-0.013-0.236-0.003-0.474-0.003-0.764c-0.168,0-0.317,0-0.467,0c-6.689,0-13.378,0-20.066,0c-0.131,0-0.263,0.01-0.392-0.007
		c-0.312-0.041-0.497-0.221-0.51-0.541c-0.013-0.323,0.167-0.51,0.469-0.581c0.102-0.024,0.213-0.013,0.32-0.013
		c6.998,0,13.997-0.001,20.995,0c0.611,0,0.793,0.18,0.794,0.78c0.001,0.595,0.004,1.19-0.001,1.785
		c-0.004,0.421-0.166,0.597-0.585,0.66c-0.655,0.098-1.058,0.515-1.057,1.092c0.001,0.578,0.406,0.994,1.061,1.09
		c0.415,0.061,0.58,0.24,0.582,0.663c0.004,0.988,0.005,1.976,0,2.964c-0.002,0.434-0.181,0.622-0.614,0.674
		c-0.625,0.075-1.027,0.493-1.031,1.07c-0.004,0.582,0.39,1.002,1.014,1.083c0.457,0.059,0.628,0.243,0.632,0.699
		c0.004,0.583,0.002,1.166,0.001,1.75c-0.001,0.615-0.173,0.793-0.779,0.794c-1,0.003-2,0.001-2.999,0.001
		C29.591,21.684,29.462,21.684,29.289,21.684z"/>
	<path fill="#28388F" d="M21,20.864c0,3.209-2.451,5.644-5.67,5.636c-3.051-0.007-5.557-2.545-5.559-5.629
		c-0.002-3.078,2.511-5.68,5.552-5.629C19.079,15.305,20.996,18.051,21,20.864z M19.882,20.875c0.008-2.446-1.994-4.487-4.416-4.503
		c-2.55-0.017-4.526,1.93-4.536,4.47c-0.01,2.551,1.927,4.501,4.486,4.516C17.856,25.372,19.875,23.345,19.882,20.875z"/>
	<path fill="#28388F" d="M23.67,21.434c-0.285,0-0.571,0.008-0.855-0.002c-0.34-0.012-0.575-0.243-0.583-0.552
		c-0.007-0.3,0.228-0.569,0.56-0.579c0.582-0.018,1.165-0.019,1.746,0.002c0.34,0.012,0.551,0.273,0.539,0.59
		c-0.012,0.315-0.238,0.529-0.587,0.54C24.217,21.441,23.943,21.434,23.67,21.434z"/>
	<path fill="#28388F" d="M7.134,21.433c-0.285,0-0.571,0.01-0.856-0.003c-0.322-0.014-0.544-0.237-0.559-0.535
		c-0.014-0.292,0.195-0.574,0.506-0.587c0.605-0.025,1.213-0.025,1.818,0c0.308,0.013,0.525,0.302,0.509,0.588
		c-0.016,0.295-0.244,0.513-0.563,0.538c-0.024,0.002-0.048,0.001-0.071,0.001c-0.262,0-0.523,0-0.785,0
		C7.134,21.434,7.134,21.433,7.134,21.433z"/>
	<path fill="#28388F" d="M17.175,22.156c-0.022,0.649-0.341,1.179-0.957,1.542c-0.119,0.07-0.187,0.221-0.3,0.308
		c-0.168,0.13-0.35,0.32-0.533,0.328c-0.165,0.006-0.347-0.187-0.504-0.314c-0.119-0.097-0.194-0.251-0.318-0.34
		c-0.374-0.268-0.709-0.563-0.863-1.013c-0.115-0.337,0.015-0.628,0.328-0.763c0.282-0.122,0.55,0.019,0.738,0.317
		c0.118,0.188,0.283,0.397,0.476,0.476c0.341,0.14,0.701-0.112,0.78-0.473c0.081-0.372-0.154-0.71-0.546-0.778
		c-0.175-0.03-0.357-0.03-0.527-0.075c-0.695-0.183-1.216-0.768-1.307-1.449c-0.103-0.774,0.233-1.458,0.88-1.85
		c0.147-0.089,0.235-0.27,0.374-0.378c0.16-0.124,0.349-0.299,0.52-0.293c0.171,0.006,0.344,0.197,0.5,0.327
		c0.111,0.091,0.195,0.214,0.291,0.323c0.294,0.333,0.638,0.635,0.868,1.008c0.218,0.354,0.048,0.72-0.29,0.858
		c-0.322,0.131-0.601-0.024-0.765-0.427c-0.15-0.368-0.449-0.549-0.772-0.467c-0.302,0.077-0.504,0.351-0.489,0.661
		c0.017,0.352,0.256,0.573,0.66,0.611C16.463,20.391,17.172,21.118,17.175,22.156z"/>
</g>
</svg>
