<?xml version="1.0" encoding="utf-8"?>
<!-- Generator: Adobe Illustrator 17.0.0, SVG Export Plug-In . SVG Version: 6.00 Build 0)  -->
<!DOCTYPE svg PUBLIC "-//W3C//DTD SVG 1.1//EN" "http://www.w3.org/Graphics/SVG/1.1/DTD/svg11.dtd">
<svg version="1.1" id="Layer_1" xmlns="http://www.w3.org/2000/svg" xmlns:xlink="http://www.w3.org/1999/xlink" x="0px" y="0px"
	 width="52.667px" height="52.667px" viewBox="0 0 52.667 52.667" enable-background="new 0 0 52.667 52.667" xml:space="preserve">
<circle opacity="0.3" cx="26.333" cy="26.333" r="25"/>
<g>
	<path fill="#EDEDED" d="M10.833,37.06c0-7.589,0-15.177,0-22.766c0.1-0.079,0.208-0.15,0.299-0.238
		c0.766-0.746,1.529-1.495,2.294-2.243c0.062-0.061,0.131-0.115,0.239-0.209c0.602,0.606,1.19,1.197,1.816,1.827
		c0.589-0.593,1.182-1.19,1.813-1.825c0.603,0.606,1.192,1.197,1.817,1.824c0.59-0.593,1.184-1.19,1.817-1.827
		c0.602,0.608,1.188,1.201,1.81,1.83c0.594-0.598,1.188-1.194,1.82-1.83c0.603,0.609,1.19,1.201,1.814,1.833
		c0.593-0.6,1.184-1.199,1.784-1.807c0.856,0.837,1.687,1.661,2.533,2.468c0.185,0.176,0.25,0.353,0.25,0.604
		c-0.006,8.131-0.004,16.262-0.008,24.393c0,0.607,0.114,1.18,0.377,1.726c0.033,0.069,0.062,0.141,0.1,0.228
		c-0.074,0.005-0.122,0.012-0.171,0.012c-5.316,0-10.633,0.009-15.949-0.008c-2.017-0.007-3.862-1.518-4.329-3.471
		C10.919,37.407,10.876,37.234,10.833,37.06z M21.792,30.15c0-0.568,0.011-1.103-0.005-1.636c-0.007-0.221,0.054-0.33,0.265-0.428
		c1.043-0.48,1.661-1.581,1.548-2.709c-0.114-1.146-0.941-2.101-2.069-2.37c-0.253-0.06-0.519-0.066-0.778-0.105
		c-0.485-0.073-0.832-0.524-0.771-0.995c0.066-0.509,0.527-0.86,1.038-0.785c0.489,0.072,0.713,0.402,0.795,0.843
		c0.605,0,1.194,0,1.8,0c-0.057-1.017-0.484-1.807-1.361-2.268c-0.403-0.212-0.525-0.449-0.467-0.859
		c0.024-0.168,0.004-0.342,0.004-0.514c0-0.288,0-0.575,0-0.859c-0.629,0-1.21,0-1.816,0c0,0.57-0.011,1.123,0.005,1.676
		c0.007,0.221-0.056,0.331-0.265,0.429c-1.049,0.49-1.673,1.607-1.542,2.711c0.14,1.182,0.957,2.114,2.101,2.376
		c0.254,0.058,0.52,0.058,0.778,0.103c0.43,0.076,0.734,0.442,0.74,0.87c0.006,0.427-0.3,0.811-0.713,0.896
		c-0.434,0.089-0.864-0.14-1.029-0.554c-0.043-0.109-0.068-0.226-0.101-0.335c-0.595,0-1.178,0-1.761,0
		c-0.01,0.042-0.022,0.07-0.022,0.098c0,0.06,0.001,0.121,0.01,0.181c0.143,1.002,0.657,1.741,1.573,2.182
		c0.169,0.082,0.236,0.168,0.231,0.359c-0.014,0.561-0.005,1.123-0.005,1.692C20.595,30.15,21.176,30.15,21.792,30.15z M27.227,32
		c-3.033,0-6.04,0-9.053,0c0,0.602,0,1.183,0,1.779c3.022,0,6.03,0,9.053,0C27.227,33.184,27.227,32.604,27.227,32z M18.175,37.408
		c3.031,0,6.039,0,9.042,0c0-0.608,0-1.196,0-1.78c-3.025,0-6.026,0-9.042,0C18.175,36.223,18.175,36.804,18.175,37.408z
		 M16.331,32.003c-0.618,0-1.205,0-1.788,0c0,0.604,0,1.184,0,1.774c0.603,0,1.19,0,1.788,0
		C16.331,33.179,16.331,32.599,16.331,32.003z M16.329,35.634c-0.612,0-1.198,0-1.778,0c0,0.61,0,1.197,0,1.778
		c0.604,0,1.184,0,1.778,0C16.329,36.816,16.329,36.236,16.329,35.634z"/>
	<path fill="#EDEDED" d="M41.833,35.607c-1.198,0-2.396,0-3.61,0c-0.009-0.07-0.022-0.127-0.022-0.184
		c-0.001-3.568-0.005-7.136,0.003-10.703c0.002-0.765,0.37-1.333,1.067-1.652c0.687-0.315,1.336-0.199,1.924,0.267
		c0.348,0.275,0.503,0.668,0.638,1.072C41.833,28.14,41.833,31.873,41.833,35.607z"/>
	<path fill="#EDEDED" d="M32.751,22.908c1.389,0,2.736,0,4.109,0c-0.083,0.192-0.19,0.358-0.228,0.538
		c-0.099,0.47-0.236,0.945-0.238,1.419c-0.017,4.76-0.01,9.521-0.011,14.281c0,0.949-0.538,1.655-1.409,1.864
		c-1.079,0.259-2.152-0.537-2.219-1.647c-0.005-0.09-0.004-0.181-0.004-0.272c0-5.285,0-10.57,0-15.855
		C32.751,23.138,32.751,23.038,32.751,22.908z"/>
</g>
</svg>
