<?xml version="1.0" encoding="utf-8"?>
<!-- Generator: Adobe Illustrator 17.0.0, SVG Export Plug-In . SVG Version: 6.00 Build 0)  -->
<!DOCTYPE svg PUBLIC "-//W3C//DTD SVG 1.1//EN" "http://www.w3.org/Graphics/SVG/1.1/DTD/svg11.dtd">
<svg version="1.1" id="Layer_1" xmlns="http://www.w3.org/2000/svg" xmlns:xlink="http://www.w3.org/1999/xlink" x="0px" y="0px"
	 width="35px" height="35px" viewBox="0 0 35 35" enable-background="new 0 0 35 35" xml:space="preserve">
<g>
	<path fill="#141414" d="M15.708,1.702c1.193,0,2.386,0,3.579,0c0.152,0.019,0.303,0.05,0.455,0.057
		c1.89,0.083,3.767,0.286,5.617,0.689c1.326,0.288,2.629,0.65,3.803,1.365c0.885,0.539,1.363,1.249,1.336,2.37
		c-0.065,2.702-0.021,5.406-0.021,8.109c0,2.631,0,5.262,0,7.894c0,2.282-0.02,4.565,0.011,6.847
		c0.011,0.824-0.317,1.42-0.946,1.894c-0.868,0.655-1.872,1.017-2.9,1.309c-1.903,0.539-3.853,0.802-5.823,0.941
		c-0.511,0.036-1.021,0.082-1.531,0.123c-1.193,0-2.386,0-3.579,0c-0.756-0.062-1.512-0.121-2.268-0.187
		c-1.782-0.154-3.545-0.421-5.263-0.931c-0.987-0.293-1.947-0.653-2.773-1.293c-0.595-0.461-0.903-1.039-0.896-1.825
		c0.024-2.785,0.012-5.571,0.009-8.356C4.515,18.321,4.5,15.936,4.5,13.552c0-2.518,0.035-5.037,0.005-7.555
		c-0.01-0.825,0.302-1.42,0.924-1.902c0.7-0.543,1.505-0.879,2.337-1.147c2.084-0.672,4.236-0.963,6.411-1.122
		C14.687,1.788,15.198,1.743,15.708,1.702z M5.648,23.196c0,0.152,0,0.264,0,0.376c0,1.82,0.013,3.641-0.009,5.461
		c-0.006,0.469,0.159,0.818,0.542,1.027c0.565,0.307,1.14,0.619,1.746,0.825c2.472,0.84,5.045,1.115,7.634,1.235
		c2.066,0.096,4.131,0.045,6.192-0.169c1.739-0.181,3.465-0.44,5.124-1.003c0.665-0.225,1.3-0.552,1.923-0.879
		c0.396-0.208,0.564-0.566,0.557-1.05c-0.025-1.82-0.01-3.641-0.01-5.461c0-0.109,0-0.218,0-0.313
		c-0.609,0.271-1.182,0.57-1.785,0.786c-2.383,0.85-4.871,1.14-7.375,1.292c-2.776,0.168-5.548,0.094-8.308-0.288
		C9.728,24.736,7.609,24.332,5.648,23.196z M5.648,7.388c0,0.156,0,0.266,0,0.377c0,1.831,0.012,3.662-0.009,5.492
		c-0.005,0.445,0.154,0.772,0.509,0.982c0.457,0.27,0.926,0.539,1.421,0.723c2.225,0.825,4.555,1.13,6.904,1.298
		c2.424,0.174,4.849,0.142,7.269-0.107c1.739-0.178,3.465-0.436,5.124-1.001c0.674-0.229,1.317-0.562,1.95-0.894
		c0.387-0.203,0.545-0.56,0.539-1.028c-0.022-1.83-0.009-3.661-0.009-5.492c0-0.105,0-0.21,0-0.268
		c-0.737,0.306-1.43,0.645-2.155,0.887c-2.248,0.749-4.584,1.021-6.934,1.164c-3.117,0.189-6.227,0.089-9.314-0.421
		C9.118,8.799,7.319,8.393,5.648,7.388z M5.648,15.288c0,0.157,0,0.268,0,0.379c0,1.831,0.012,3.662-0.009,5.492
		c-0.005,0.446,0.157,0.771,0.512,0.981c0.458,0.27,0.926,0.538,1.422,0.722c2.225,0.825,4.555,1.129,6.904,1.297
		c2.424,0.173,4.849,0.141,7.269-0.107c1.739-0.178,3.465-0.437,5.124-1.002c0.674-0.229,1.316-0.564,1.949-0.896
		c0.322-0.169,0.535-0.456,0.532-0.874c-0.01-1.913-0.004-3.826-0.006-5.739c0-0.074-0.016-0.147-0.018-0.163
		c-0.72,0.299-1.412,0.643-2.139,0.878c-2.813,0.91-5.728,1.154-8.66,1.234c-2.429,0.066-4.852-0.059-7.254-0.435
		C9.336,16.752,7.419,16.35,5.648,15.288z M17.256,2.836c-2.535,0.012-5.337,0.215-8.084,0.903C8.137,3.999,7.109,4.296,6.214,4.91
		C5.476,5.417,5.457,5.909,6.211,6.376c0.535,0.332,1.12,0.609,1.716,0.812c2.441,0.831,4.982,1.114,7.539,1.231
		c2.879,0.132,5.752,0.021,8.598-0.481c1.396-0.247,2.778-0.553,4.064-1.174c0.338-0.163,0.661-0.379,0.945-0.624
		c0.37-0.32,0.373-0.652,0.008-0.971c-0.282-0.247-0.606-0.463-0.942-0.627c-1.18-0.577-2.449-0.873-3.73-1.117
		C22.14,2.995,19.846,2.845,17.256,2.836z"/>
	<path fill="#141414" d="M28.226,27.088c0.002,0.297-0.271,0.574-0.569,0.576c-0.297,0.002-0.575-0.272-0.577-0.57
		c-0.002-0.296,0.273-0.573,0.57-0.575C27.949,26.518,28.224,26.789,28.226,27.088z"/>
	<path fill="#141414" d="M28.226,11.285c0.005,0.297-0.264,0.575-0.564,0.581c-0.297,0.006-0.576-0.266-0.581-0.565
		c-0.005-0.296,0.267-0.575,0.565-0.58C27.945,10.716,28.221,10.985,28.226,11.285z"/>
	<path fill="#141414" d="M28.226,19.177c0.01,0.297-0.256,0.577-0.556,0.587c-0.296,0.01-0.578-0.257-0.588-0.557
		c-0.01-0.296,0.257-0.577,0.558-0.586C27.937,18.611,28.216,18.876,28.226,19.177z"/>
</g>
</svg>
