<?xml version="1.0" encoding="utf-8"?>
<!-- Generator: Adobe Illustrator 17.0.0, SVG Export Plug-In . SVG Version: 6.00 Build 0)  -->
<!DOCTYPE svg PUBLIC "-//W3C//DTD SVG 1.1//EN" "http://www.w3.org/Graphics/SVG/1.1/DTD/svg11.dtd">
<svg version="1.1" id="Layer_1" xmlns="http://www.w3.org/2000/svg" xmlns:xlink="http://www.w3.org/1999/xlink" x="0px" y="0px"
	 width="35px" height="35px" viewBox="0 0 35 35" enable-background="new 0 0 35 35" xml:space="preserve">
<g>
	<path fill="#141414" d="M12.737,16.846c-1.199-0.932-2.061-2.046-2.612-3.4C8.268,8.882,11.007,3.69,15.821,2.652
		c4.483-0.966,8.781,1.945,9.585,6.493c0.757,4.284-2.222,8.484-6.534,9.17c-0.787,0.125-1.596,0.113-2.394,0.174
		c-2.147,0.165-4.13,0.836-5.925,2.014c-2.991,1.961-4.898,4.688-5.661,8.195c-0.164,0.752,0.345,1.417,1.112,1.48
		c0.107,0.009,0.215,0.005,0.323,0.005c3.845,0,7.69,0.001,11.535,0c0.487,0,0.85,0.216,1.069,0.643
		c0.214,0.417,0.177,0.835-0.096,1.218c-0.223,0.313-0.534,0.484-0.923,0.484c-4.011,0.001-8.023,0.012-12.034-0.005
		c-1.764-0.007-3.339-1.619-3.375-3.385c-0.021-0.999,0.281-1.932,0.618-2.845c1.617-4.389,4.602-7.462,8.95-9.202
		C12.275,17.008,12.486,16.937,12.737,16.846z M23.167,10.454c-0.002-3.093-2.546-5.636-5.638-5.635
		c-3.092,0.001-5.636,2.546-5.635,5.638c0.001,3.141,2.548,5.667,5.755,5.623C20.69,16.038,23.132,13.576,23.167,10.454z"/>
	<path fill="#141414" d="M27.012,25.487c1.448,0,2.896-0.001,4.344,0.001c0.69,0.001,1.144,0.436,1.144,1.088
		c0,0.812-0.402,1.256-1.154,1.257c-2.916,0.002-5.831,0.002-8.747,0c-0.615,0-1.117-0.43-1.188-1.002
		c-0.075-0.604,0.269-1.137,0.852-1.3c0.129-0.036,0.27-0.041,0.405-0.041C24.116,25.486,25.564,25.487,27.012,25.487z"/>
	<path fill="#141414" d="M26.953,23.136c-1.458,0-2.916,0.002-4.373-0.001c-0.594-0.001-1.092-0.43-1.167-0.992
		c-0.082-0.61,0.276-1.158,0.87-1.317c0.111-0.03,0.232-0.035,0.348-0.035c2.896-0.002,5.792-0.002,8.688-0.001
		c0.757,0,1.183,0.423,1.183,1.168c0,0.749-0.424,1.176-1.174,1.177C29.868,23.137,28.41,23.136,26.953,23.136z"/>
	<path fill="#141414" d="M26.983,32.53c-1.468,0-2.935,0.002-4.403-0.001c-0.595-0.001-1.092-0.43-1.168-0.991
		c-0.083-0.61,0.275-1.158,0.869-1.317c0.111-0.03,0.231-0.035,0.348-0.035c2.896-0.002,5.792-0.002,8.688-0.001
		c0.758,0,1.183,0.423,1.183,1.168c0,0.749-0.424,1.177-1.173,1.178C29.879,32.531,28.431,32.53,26.983,32.53z"/>
</g>
</svg>
