<?xml version="1.0" encoding="utf-8"?>
<!-- Generator: Adobe Illustrator 17.0.0, SVG Export Plug-In . SVG Version: 6.00 Build 0)  -->
<!DOCTYPE svg PUBLIC "-//W3C//DTD SVG 1.1//EN" "http://www.w3.org/Graphics/SVG/1.1/DTD/svg11.dtd">
<svg version="1.1" id="Layer_1" xmlns="http://www.w3.org/2000/svg" xmlns:xlink="http://www.w3.org/1999/xlink" x="0px" y="0px"
	 width="52.667px" height="52.667px" viewBox="0 0 52.667 52.667" enable-background="new 0 0 52.667 52.667" xml:space="preserve">
<circle opacity="0.3" cx="26.333" cy="26.333" r="25"/>
<g>
	<path fill="#EDEDED" d="M10.333,35.271c0.047-0.169,0.087-0.341,0.142-0.507c0.372-1.125,1.427-1.92,2.618-1.925
		c2.552-0.012,5.104-0.015,7.656,0c1.53,0.009,2.739,1.24,2.769,2.773c0.006,0.311,0.001,0.622,0.001,0.966
		c-1.877,0-3.735,0-5.608,0c0,1.301,0,2.568,0,3.857c5.607,0,11.214,0,16.84,0c0-1.274,0-2.548,0-3.845c-1.862,0-3.712,0-5.558,0
		c-0.403-2.396,1.142-3.781,2.91-3.763c2.416,0.024,4.833,0.005,7.25,0.006c1.54,0.001,2.571,0.819,2.932,2.323
		c0.01,0.04,0.031,0.076,0.048,0.114c0,0.438,0,0.875,0,1.313c-1.889,0-3.778,0-5.666,0c0,1.312,0,2.585,0,3.875
		c1.903,0,3.784,0,5.666,0c0,0.625,0,1.25,0,1.875c-10.667,0-21.333,0-32,0c0-0.625,0-1.25,0-1.875c1.889,0,3.778,0,5.666,0
		c0-1.312,0-2.585,0-3.875c-1.903,0-3.784,0-5.666,0C10.333,36.146,10.333,35.708,10.333,35.271z"/>
	<path fill="#EDEDED" d="M28.583,10.333c0.426,0.181,0.889,0.307,1.271,0.556c0.701,0.456,1.117,1.158,1.141,1.986
		c0.047,1.663,0.014,3.329,0.014,4.993c-3.115,0-6.221,0-9.364,0c0-0.084,0-0.196,0-0.307c0-1.406,0-2.812,0-4.217
		c0.001-1.58,0.807-2.595,2.354-2.968c0.029-0.007,0.055-0.027,0.083-0.042C25.583,10.333,27.083,10.333,28.583,10.333z"/>
	<path fill="#EDEDED" d="M21.633,30.992c-3.137,0-6.255,0-9.425,0c0-0.077,0-0.185,0-0.292c0-2.061-0.002-4.122,0.001-6.183
		c0.002-1.72,1.209-2.929,2.925-2.933c1.197-0.003,2.394-0.003,3.591,0c1.701,0.004,2.915,1.211,2.919,2.907
		c0.005,2.082,0.001,4.164,0.001,6.246C21.645,30.828,21.637,30.92,21.633,30.992z"/>
	<path fill="#EDEDED" d="M40.458,30.993c-3.162,0-6.282,0-9.437,0c0-0.086,0-0.197,0-0.309c0-2.04-0.001-4.08,0-6.121
		c0.001-1.783,1.193-2.977,2.973-2.979c1.176-0.001,2.353-0.002,3.529,0c1.722,0.004,2.931,1.206,2.934,2.924
		c0.004,2.071,0.001,4.143,0.001,6.214C40.458,30.814,40.458,30.907,40.458,30.993z"/>
	<path fill="#EDEDED" d="M29.125,30.952c-1.87,0-3.713,0-5.58,0c0-0.613,0-1.221,0-1.863c0.603,0,1.211,0,1.835,0
		c0-1.259,0-2.484,0-3.744c-0.605,0-1.213,0-1.875,0c0.186-2.215-0.525-3.976-2.516-5.123c0.446-0.332,0.926-0.502,1.44-0.504
		c2.604-0.012,5.208-0.013,7.812,0c0.513,0.003,0.994,0.17,1.433,0.505c-1.973,1.146-2.701,2.887-2.51,5.101
		c-0.642,0-1.25,0-1.875,0c0,1.259,0,2.484,0,3.744c0.599,0,1.208,0,1.836,0C29.125,29.709,29.125,30.317,29.125,30.952z"/>
</g>
</svg>
