<?xml version="1.0" encoding="utf-8"?>
<!-- Generator: Adobe Illustrator 17.0.0, SVG Export Plug-In . SVG Version: 6.00 Build 0)  -->
<!DOCTYPE svg PUBLIC "-//W3C//DTD SVG 1.1//EN" "http://www.w3.org/Graphics/SVG/1.1/DTD/svg11.dtd">
<svg version="1.1" id="Layer_1" xmlns="http://www.w3.org/2000/svg" xmlns:xlink="http://www.w3.org/1999/xlink" x="0px" y="0px"
	 width="35px" height="35px" viewBox="0 0 35 35" enable-background="new 0 0 35 35" xml:space="preserve">
<g>
	<path fill="#28388F" d="M1.876,23.789c2.063,0,4.126,0,6.211,0c0,2.081,0,4.138,0,6.216c-0.067,0.007-0.134,0.021-0.202,0.022
		c-1.953,0.001-3.905,0.001-5.858,0c-0.051,0-0.101-0.008-0.152-0.013C1.876,27.94,1.876,25.865,1.876,23.789z M6.266,25.646
		c-0.844,0-1.689,0-2.543,0c0,0.849,0,1.687,0,2.534c0.854,0,1.691,0,2.543,0C6.266,27.33,6.266,26.5,6.266,25.646z"/>
	<path fill="#28388F" d="M33.124,30.015c-1.83,0.004-3.661,0.009-5.491,0.013c-0.233,0.001-0.465,0-0.721,0c0-2.079,0-4.137,0-6.239
		c2.07,0,4.141,0,6.211,0C33.124,25.865,33.124,27.94,33.124,30.015z M31.283,25.642c-0.865,0-1.702,0-2.542,0
		c0,0.857,0,1.695,0,2.536c0.858,0,1.694,0,2.542,0C31.283,27.326,31.283,26.496,31.283,25.642z"/>
	<path fill="#28388F" d="M33.071,10.399c-8.313,4.112-22.555,4.206-31.131,0.007c0.019-0.081,0.036-0.169,0.061-0.253
		c0.485-1.635,0.976-3.268,1.452-4.906C3.516,5.028,3.613,4.972,3.83,4.972c9.112,0.005,18.223,0.005,27.335,0.005
		c0.146,0,0.294-0.036,0.356,0.178C32.031,6.899,32.549,8.639,33.071,10.399z M12.457,6.807c-0.199,1.533-0.393,3.017-0.588,4.515
		c3.779,0.505,7.509,0.503,11.237,0.003c0-0.099,0.007-0.161-0.001-0.221c-0.174-1.319-0.358-2.636-0.516-3.957
		c-0.032-0.269-0.11-0.348-0.383-0.347c-3.141,0.01-6.281,0.006-9.422,0.006C12.686,6.807,12.586,6.807,12.457,6.807z M30.869,9.412
		c-0.237-0.802-0.473-1.567-0.683-2.338c-0.062-0.226-0.173-0.271-0.385-0.27c-1.697,0.007-3.394,0.004-5.09,0.005
		c-0.099,0-0.197,0.009-0.322,0.014c0.186,1.42,0.369,2.812,0.553,4.217C26.981,10.656,28.942,10.158,30.869,9.412z M10.059,11.036
		c0.185-1.415,0.367-2.806,0.546-4.177c-0.044-0.03-0.052-0.041-0.06-0.041C8.717,6.814,6.889,6.81,5.06,6.814
		c-0.066,0-0.172,0.074-0.191,0.134C4.617,7.76,4.378,8.576,4.13,9.409C6.047,10.151,8.007,10.652,10.059,11.036z"/>
	<path fill="#28388F" d="M6.06,15.599c2.067,0,4.124,0,6.203,0c0,2.069,0,4.126,0,6.204c-2.069,0-4.126,0-6.203,0
		C6.06,19.735,6.06,17.678,6.06,15.599z M7.885,19.981c0.868,0,1.697,0,2.548,0c0-0.857,0-1.701,0-2.555c-0.86,0-1.697,0-2.548,0
		C7.885,18.283,7.885,19.12,7.885,19.981z"/>
	<path fill="#28388F" d="M22.737,21.803c0-2.067,0-4.125,0-6.204c2.069,0,4.126,0,6.204,0c0,2.07,0,4.126,0,6.204
		C26.872,21.803,24.815,21.803,22.737,21.803z M24.564,17.428c0,0.861,0,1.698,0,2.539c0.864,0,1.708,0,2.555,0
		c0-0.857,0-1.686,0-2.539C26.27,17.428,25.433,17.428,24.564,17.428z"/>
	<path fill="#28388F" d="M20.607,15.572c0,2.025,0,4.077,0,6.194c-2.066,0-4.123,0-6.202,0c0-2.012,0-4.069,0-6.194
		C16.461,15.572,18.517,15.572,20.607,15.572z M18.767,19.949c0-0.881,0-1.719,0-2.549c-0.857,0-1.695,0-2.537,0
		c0,0.872,0,1.711,0,2.549C17.079,19.949,17.909,19.949,18.767,19.949z"/>
	<path fill="#28388F" d="M10.234,30.011c0-2.074,0-4.13,0-6.202c2.075,0,4.132,0,6.205,0c0,2.073,0,4.13,0,6.202
		C14.364,30.011,12.307,30.011,10.234,30.011z M12.061,28.172c0.875,0,1.712,0,2.54,0c0-0.864,0-1.701,0-2.525
		c-0.863,0-1.701,0-2.54,0C12.061,26.501,12.061,27.331,12.061,28.172z"/>
	<path fill="#28388F" d="M18.562,23.809c2.072,0,4.129,0,6.204,0c0,2.071,0,4.128,0,6.202c-2.073,0-4.13,0-6.204,0
		C18.562,27.938,18.562,25.882,18.562,23.809z M22.939,25.648c-0.862,0-1.707,0-2.548,0c0,0.856,0,1.686,0,2.523
		c0.861,0,1.705,0,2.548,0C22.939,27.314,22.939,26.484,22.939,25.648z"/>
</g>
</svg>
