<?xml version="1.0" encoding="utf-8"?>
<!-- Generator: Adobe Illustrator 17.0.0, SVG Export Plug-In . SVG Version: 6.00 Build 0)  -->
<!DOCTYPE svg PUBLIC "-//W3C//DTD SVG 1.1//EN" "http://www.w3.org/Graphics/SVG/1.1/DTD/svg11.dtd">
<svg version="1.1" id="Layer_1" xmlns="http://www.w3.org/2000/svg" xmlns:xlink="http://www.w3.org/1999/xlink" x="0px" y="0px"
	 width="35px" height="35px" viewBox="0 0 35 35" enable-background="new 0 0 35 35" xml:space="preserve">
<g>
	<path fill="#FFFFFF" d="M17.49,9.737c-4.173,0-8.346,0.001-12.52-0.001C3.794,9.735,2.923,8.875,2.945,7.748
		c0.019-0.994,0.824-1.832,1.818-1.889c0.05-0.003,0.101-0.004,0.152-0.004c8.387,0,16.774-0.001,25.161,0.001
		c1.121,0,1.981,0.854,1.98,1.941c-0.001,1.037-0.827,1.9-1.864,1.935c-0.414,0.014-0.828,0.004-1.243,0.004
		C25.129,9.737,21.31,9.737,17.49,9.737z"/>
	<path fill="#FFFFFF" d="M17.513,15.559c4.173,0,8.346-0.001,12.52,0.001c1.175,0.001,2.046,0.863,2.022,1.99
		c-0.021,0.995-0.825,1.829-1.821,1.886c-0.081,0.005-0.162,0.004-0.242,0.004c-8.326,0-16.653,0-24.979,0
		c-1.037,0-1.813-0.589-2.019-1.526c-0.263-1.193,0.622-2.327,1.848-2.352c0.697-0.014,1.394-0.003,2.092-0.003
		C10.46,15.559,13.986,15.559,17.513,15.559z"/>
	<path fill="#FFFFFF" d="M17.51,25.264c4.183,0,8.367-0.002,12.55,0.001c1.151,0.001,2.017,0.871,1.995,1.988
		c-0.02,0.996-0.823,1.83-1.818,1.889c-0.06,0.004-0.121,0.004-0.182,0.004c-8.367,0-16.733,0.001-25.1-0.001
		c-0.999,0-1.767-0.613-1.967-1.553c-0.247-1.163,0.627-2.287,1.821-2.323c0.586-0.018,1.172-0.005,1.758-0.005
		C10.215,25.263,13.863,25.263,17.51,25.264z"/>
</g>
</svg>
